<?xml version="1.0" encoding="UTF-8" standalone="no"?>
<!DOCTYPE svg PUBLIC "-//W3C//DTD SVG 1.1//EN" "http://www.w3.org/Graphics/SVG/1.1/DTD/svg11.dtd">
<svg width="100%" height="100%" viewBox="0 0 40 40" version="1.1" xmlns="http://www.w3.org/2000/svg" xml:space="preserve" style="fill-rule:evenodd;clip-rule:evenodd;stroke-linecap:square;stroke-miterlimit:1.5;">
    <g>
        <path d="M13.275,24.427c0.685,0.842 1.456,1.613 2.298,2.298l-11.01,11.01l-2.298,-2.298l11.01,-11.01Z" style="fill:#767676;"/>
        <path d="M25.5,2c6.899,0 12.5,5.601 12.5,12.5c-0,6.899 -5.601,12.5 -12.5,12.5c-6.899,-0 -12.5,-5.601 -12.5,-12.5c-0,-6.899 5.601,-12.5 12.5,-12.5Zm-0,3c-5.243,0 -9.5,4.257 -9.5,9.5c-0,5.243 4.257,9.5 9.5,9.5c5.243,-0 9.5,-4.257 9.5,-9.5c-0,-5.243 -4.257,-9.5 -9.5,-9.5Z" style="fill:#8e8e8e;"/>
    </g>
    <g>
        <path d="M19.5,18.5l2,-2l2,2l2,-2l2,2l2,-2l2,2" style="fill:none;stroke:#d2524f;stroke-width:1.15px;"/>
        <path d="M19.5,12.5l2,-2l2,2l2,-2l2,2l2,-2l2,2" style="fill:none;stroke:#be9139;stroke-width:1.15px;"/>
    </g>
</svg>
